<svg width="131" height="287" viewBox="0 0 131 287" fill="none" xmlns="http://www.w3.org/2000/svg">
<path fill-rule="evenodd" clip-rule="evenodd" d="M53.6191 136.652C56.3303 136.628 59.1093 139.325 61.0626 140.911C55.9797 137.512 47.9305 137.635 42.1022 136.816C36.4312 136.019 30.8006 134.822 25.3258 133.102C25.2059 133.066 13.0661 129.09 17.1772 126.808C28.549 120.429 42.6317 137.216 53.6191 136.652ZM-25.2876 84.3287C-23.1508 89.5698 -13.6878 115.235 -22.8846 117.068C-30.204 118.525 -36.483 102.907 -36.8766 97.6873C-37.5256 88.9971 -37.1292 80.3256 -38.3405 71.647C-33.2455 75.5529 -27.8267 78.0371 -25.2876 84.3287ZM-114.665 243.059C-118.174 247.394 -121.721 251.725 -125.539 255.792C-121.529 250.822 -117.703 245.827 -113.195 241.293L-114.666 243.059L-114.665 243.059ZM121.173 42.9015C119.248 40.4193 111.728 43.4518 109.575 43.9387C103.67 45.2712 97.2783 46.4558 91.8796 44.1192C87.2488 42.9554 94.7451 34.9249 95.9184 31.8529C96.7412 29.6991 98.4574 24.2388 97.0311 22.0429C93.9745 17.3387 87.5761 22.8523 84.3901 25.0252C79.7245 28.2088 77.7939 30.27 78.6008 24.4267C79.4696 18.1457 86.0529 7.56631 79.3927 2.00231C73.7192 -2.73604 64.9017 6.26137 61.4747 9.87606C55.011 16.6828 52.0113 24.3827 50.6324 33.5476C50.3099 35.6842 47.8358 48.3194 45.6642 46.0932C41.3308 40.5245 44.7614 32.3487 41.3396 26.3478C39.3944 22.9374 36.7158 21.2468 35.081 17.4096C33.4663 13.6213 31.8355 6.82935 26.6128 6.41806C23.298 6.15829 21.1085 8.90088 20.5609 11.6352C18.8239 18.047 20.1307 23.8201 20.0185 30.3133C19.9347 35.0646 16.812 38.6369 17.9729 43.5255C19.8445 50.9767 22.2862 58.7911 23.5494 66.5508C23.9456 68.983 25.288 80.0557 20.5254 77.8908C17.8434 76.672 18.1208 66.3109 17.9384 64.49C17.5006 60.1392 17.5654 55.7972 14.9462 52.0284C13.4449 49.8679 10.9552 49.0365 9.79639 47.3406C6.37302 42.3259 6.60451 33.8257 3.77778 28.3178C1.24058 23.3757 -5.47996 11.395 -11.3808 10.2229C-19.4603 8.61733 -16.4206 19.6157 -15.8937 24.439C-15.3084 29.779 -14.4109 34.6495 -14.8846 39.8596C-15.2996 44.4592 -14.9705 48.1868 -13.207 52.6549C-9.94953 60.91 -5.04174 68.0298 -0.923768 75.5507C-0.93206 75.5221 -0.94222 75.4941 -0.954163 75.4668C1.35751 79.8817 3.28169 85.3554 3.06639 90.4603C2.70426 99.0178 -0.25753 94.6606 -2.85776 88.8368C-6.78061 80.057 -9.3382 70.6685 -13.2137 61.8899C-14.5945 58.7628 -16.2503 55.5889 -19.1294 53.5503C-21.0609 52.1829 -23.451 52.5147 -24.9504 51.6865C-30.1679 48.8129 -49.3778 16.2521 -57.444 25.9581C-61.7998 31.1986 -50.9854 42.4017 -48.7053 46.3218C-45.0636 52.5828 -41.2 56.9028 -41.5688 64.3341C-43.6864 62.3671 -46.5983 63.3924 -48.5336 61.8301C-50.8339 59.9712 -51.4788 56.0286 -52.556 53.4504C-55.5175 46.3626 -59.0032 39.3834 -63.6359 33.2683C-77.7744 14.61 -75.3963 42.8164 -73.9963 52.1316C-73.7267 53.9185 -73.4133 56.2007 -73.1343 58.2353C-72.4118 63.5715 -73.653 64.438 -74.4163 69.1549C-75.713 77.1805 -66.2523 87.7682 -61.3631 93.5174C-59.8558 95.2934 -36.6056 124.103 -46.7986 123.862C-51.9384 123.74 -60.603 109.128 -63.0018 104.642C-66.6895 97.744 -69.2228 83.962 -76.8812 80.3839C-79.2872 79.2602 -81.2735 80.4418 -83.5027 79.5551C-88.7103 77.4902 -92.2436 69.3374 -96.0101 65.5222C-103.676 57.758 -113.095 58.837 -106.682 71.4335C-104.142 76.4177 -102.883 79.744 -101.323 85.1688C-99.5435 91.3572 -93.9558 94.5459 -91.3838 99.9673C-89.259 104.448 -92.5659 102.051 -92.3744 107.384C-92.2135 111.812 -85.3452 116.657 -82.1125 119.12C-77.6227 122.542 -57.3833 134.008 -61.3513 140.926C-64.9683 147.232 -76.7674 137.724 -79.9221 134.832C-87.8143 127.598 -90.9618 117.833 -95.4012 108.464C-97.5647 103.897 -100.041 98.3541 -103.582 94.6572C-106.687 91.4185 -110.22 90.975 -114.067 89.301C-118.547 87.3531 -138.292 76.9656 -137.382 89.5187C-136.771 97.9527 -125.02 102.037 -123.552 110.087C-128.837 107.733 -139.9 97.0265 -146.198 102.655C-152.277 108.089 -140.214 119.818 -136.539 124.252C-134.284 126.971 -118.845 139.206 -119.105 143.792C-119.377 148.579 -124.917 146.865 -128.119 146.229C-133.594 145.145 -182.621 133.076 -182.403 143.068C-182.236 150.816 -163.384 148.194 -160.948 152.588C-160.053 154.202 -162.002 154.99 -162.347 156.713C-163.609 163.029 -161.516 165.553 -154.883 166.245C-161.182 181.342 -140.327 173.332 -133.317 170.924C-128.541 169.283 -108.221 161.853 -106.814 172.048C-106.341 175.476 -112.08 180.876 -113.058 184.229C-114.943 190.698 -110.192 194.668 -103.951 192.48C-99.6568 190.977 -95.7564 187.175 -93.0015 183.652C-91.4177 181.631 -88.6199 174.978 -85.9785 174.517C-86.2417 185.468 -79.8544 179.806 -74.0281 175.1C-69.67 171.581 -58.8145 162.012 -52.337 165.818C-57.4086 172.856 -64.3384 178.461 -69.8783 185.107C-75.9412 192.388 -82.2511 199.187 -89.2443 206.067C-102.507 219.114 -115.8 233.334 -127.468 247.755C-133.176 254.809 -139.357 261.529 -145.475 268.227C-147.684 270.642 -161.548 281.478 -156.69 285.88C-150.117 291.833 -138.709 269.319 -134.018 266.714C-111.716 241.347 -87.9481 217.263 -66.331 191.409C-67.221 194.326 -66.2462 202.551 -61.837 202.41C-62.8762 204.807 -65.9929 208.46 -65.2691 211.205C-63.6625 217.275 -61.2059 211.806 -58.9284 212.162C-55.0369 212.772 -58.2321 219.788 -58.9522 222.648C-62.3132 235.974 -62.944 250.535 -63.8103 264.243C-64.2836 271.765 -57.9608 292.585 -47.2819 283.674C-41.9503 279.227 -41.3991 268.093 -41.06 261.86C-40.8445 257.927 -42.6402 247.01 -39.9116 243.608C-35.3949 245.995 -29.9754 256.735 -27.0754 260.581C-20.9456 268.716 -15.5817 273.887 -4.9309 274.583C20.374 276.236 -10.2706 247.495 -7.21697 245.57C-5.06794 244.217 9.74821 256.715 11.7081 258.208C16.0515 261.516 29.2819 269.587 34.1394 262.818C38.2132 257.138 27.7929 247.631 24.7009 243.973C22.1075 240.905 20.171 236.706 16.9247 233.617C14.2542 231.075 10.677 229.628 8.03242 227.208C5.28166 224.692 5.12237 221.07 2.05571 218.192C-1.38426 214.957 -6.06203 212.256 -9.8492 209.311C-16.1791 204.392 -25.135 197.996 -25.8766 189.068C-11.417 190.863 -1.54248 206.605 8.33026 215.753C13.2682 220.328 19.0817 226.198 26.233 224.64C29.1054 224.013 26.0302 223.454 29.8754 223.188C30.7383 223.129 31.9067 223.634 32.7427 223.829C38.7372 225.241 44.4792 227.426 50.4231 228.99C54.1098 229.961 65.9386 234.277 69.2442 230.73C75.2372 224.296 49.3614 208.132 44.7872 204.548C41.3264 201.839 37.1631 199.522 33.8965 196.709C30.8986 194.128 29.8909 190.684 25.8591 188.784C20.639 186.323 14.5703 185.478 9.12814 183.631C1.80787 181.145 -4.28614 177.5 -10.3792 172.815C-12.9025 170.875 -19.0284 166.7 -17.7041 163.188C-15.5729 157.548 -5.96455 164.755 -3.24264 166.299C4.81768 170.876 12.3614 178.168 22.3294 181.177C32.6402 184.292 37.9359 194.424 47.4303 198.96C50.8601 200.598 52.7905 200.754 56.4066 200.087C60.4302 199.35 62.3373 198.883 67.0641 200.085C71.3482 201.176 92.0192 207.891 90.4465 198.249C89.9368 195.121 85.403 193.831 83.1047 192.553C78.0415 189.733 73.1248 186.624 67.9936 183.929C64.7357 182.218 60.5953 181.037 57.928 178.383C55.3981 175.865 54.8334 173.304 51.1944 171.665C46.2948 169.456 38.9285 169.813 34.6378 166.826C30.5452 163.981 27.3099 159.892 22.624 157.264C18.8948 155.176 -2.23469 147.354 -1.65662 143.861C-0.48531 136.762 23.3111 150.33 25.1436 151.326C36.8229 157.672 48.2767 166.136 60.2663 172.113C64.2962 174.121 67.4231 173.374 71.1357 173.919C76.0672 174.643 81.2191 178.03 86.2267 179.203C90.2184 180.138 100.657 182.58 98.6203 175.63C97.1504 170.607 87.6001 166.278 83.6072 163.238C79.0917 159.804 74.888 156.086 69.9983 153.181C68.9466 152.555 66.6288 151.764 65.8575 150.9C63.7272 148.503 65.1379 144.852 62.5749 142.155C65.2661 144.741 67.92 146.083 71.5721 146.119C72.5252 146.131 74.3612 145.109 75.5578 144.96C79.1692 144.509 83.4217 145.719 87.0384 146.129C92.1177 146.699 117.716 145.97 104.53 136.996C98.8944 133.161 92.5563 130.253 86.2795 127.68C81.3484 125.658 74.8897 124.174 70.7337 120.779C66.4267 117.259 65.6368 115.442 59.3757 114.511C52.9417 113.556 43.8637 113.745 38.805 109.103C28.5012 99.6445 62.8187 105.994 66.468 106.915C73.8403 108.777 81.8104 110.237 89.3475 108.571C97.7516 106.715 104.712 102.73 113.551 102.327C117.493 102.149 130.406 102.554 130.18 96.2209C129.959 89.9852 115.516 89.5708 111.684 88.8025C107.724 88.0095 103.225 87.7391 99.4194 86.5796C95.9657 85.5251 93.3297 83.2974 89.9646 81.9983C80.4247 78.3108 72.3191 83.0147 62.8069 82.5731C57.785 82.3396 55.391 80.3643 60.6403 76.7776C63.4721 74.8385 68.0211 74.6577 71.3596 73.719C76.3817 72.3086 81.326 70.51 86.284 68.8809C92.9745 66.6795 130.541 54.8996 121.173 42.9015Z" fill="#89B99A"/>
</svg>
