<svg width="231" height="371" viewBox="0 0 231 371" fill="none" xmlns="http://www.w3.org/2000/svg">
<path fill-rule="evenodd" clip-rule="evenodd" d="M147.611 129.497C135.132 125.523 122.122 124.589 109.19 123.194C113.311 122.285 117.772 121.07 121.969 120.604C125.831 120.18 128.129 121.771 131.764 123.037C138.252 125.302 145.499 128.054 151.139 130.685C149.97 130.27 148.793 129.874 147.611 129.497ZM129.839 134.462C116.148 131.904 102.131 131.349 88.4596 128.674C91.8495 127.637 93.7698 126.733 97.3726 127.076C102.727 127.584 108.146 128.681 113.379 129.846C120.972 131.537 128.634 133.361 136.032 135.76C133.977 135.283 131.912 134.85 129.839 134.462ZM130.497 137.134C129.56 137.513 126.276 136.229 125.215 136C126.237 136.195 129.898 137.376 130.497 137.134ZM103.238 136.853C92.5245 136.182 81.6821 135.846 70.9503 135.902C72.8767 135.182 74.7168 134.28 76.594 133.438C81.727 131.137 82.6191 131.503 87.7432 133.015C94.3521 134.967 101.123 136.078 107.9 137.208C106.348 137.064 104.793 136.946 103.237 136.854L103.238 136.853ZM90.7355 143.031C75.9456 144.153 61.3564 145.945 46.5923 147.598C49.7437 146.325 52.7746 144.705 55.786 143.14C60.4343 140.728 64.0026 141.068 69.1837 141.066C74.6873 141.063 80.0926 141.709 85.5636 142.331C86.9136 142.486 92.1992 142.919 90.7355 143.031ZM67.9469 131.793C75.8436 124.125 84.9023 116.98 94.1828 111.007C100.073 107.216 106.479 102.935 113.401 106.222C101.953 106.698 86.9967 117.081 80.2211 125.98C79.8962 126.401 79.3991 126.693 79.0598 127.107C77.7884 128.651 79.1736 128.819 78.3078 129.769C78.2071 129.881 73.582 131.769 74.1957 131.517C71.0583 132.811 67.8475 133.898 64.7048 135.174C65.768 134.029 66.847 132.901 67.9477 131.792L67.9469 131.793ZM111.996 113.421C104.223 119.921 95.7907 123.381 86.4296 126.642C94.9789 121.144 103.551 116.647 112.948 112.709C112.63 112.946 112.312 113.183 111.996 113.422L111.996 113.421ZM121.667 115.651C123.287 115.132 124.01 115.266 124.371 117.19C120.184 117.031 118.196 117.605 114.24 118.565C116.646 117.423 119.127 116.449 121.667 115.651ZM126.804 116.7C126.513 116.172 126.388 115.164 126.185 114.649C129.293 114.598 131.933 115.255 134.573 116.885C133.699 116.893 127.02 117.664 126.804 116.7L126.804 116.7ZM0.772848 188.851C23.4939 186.045 45.2855 185.312 68.1044 187.536C50.9127 189.043 33.6489 192.498 16.7324 195.852C3.14993 198.545 -10.6225 199.999 -24.244 202.433C-21.7198 199.806 -19.36 197.023 -16.7888 194.434C-12.3231 189.939 -5.63215 189.652 0.772848 188.851ZM78.8878 195.542C82.9898 195.122 87.0823 194.613 91.1625 194.015C95.5972 193.36 102.671 190.436 107.134 191.317C82.7696 198.55 56.4409 201.884 31.3945 205.96C20.9835 207.655 10.3846 210.132 0.299352 213.275C-14.262 217.81 -30.6862 217.788 -44.5832 224.159C-40.3332 219.705 -35.6781 213.334 -30.8361 209.712C-27.3172 207.077 -21.4795 206.858 -17.2925 206.305C-10.3993 205.396 -3.47215 204.689 3.43951 203.945C28.599 201.234 53.7186 198.174 78.8878 195.542ZM-48.5225 219.667C-50.5667 221.917 -52.5563 224.216 -54.4896 226.561C-50.9803 210.101 -51.1379 192.743 -49.1612 176.034C-48.0432 166.586 -46.9942 157.032 -45.4909 147.646C-44.1617 139.358 -43.8076 128.066 -39.3643 120.906C-36.0483 123.986 -33.5969 127.255 -34.2556 131.732C-35.1029 137.49 -37.5828 143.023 -38.7364 148.735C-40.0323 155.154 -40.9098 161.687 -41.711 168.185C-42.9434 178.179 -43.2311 188.345 -42.703 198.393C-42.5603 201.218 -42.3788 204.04 -42.1586 206.86C-42.062 208.09 -41.4248 210.187 -41.6964 211.337C-42.3596 214.165 -46.3842 217.299 -48.5225 219.667ZM-24.0197 151.136C-22.0723 141.887 -20.8846 131.141 -16.8335 122.471C-14.5847 117.653 -12.4221 115.938 -9.06258 121.142C-6.66468 124.856 -10.4317 133.008 -11.6192 137.676C-14.986 150.921 -16.7638 164.511 -18.9917 177.979C-19.5734 181.508 -19.7462 184.998 -20.1217 188.531C-20.4348 191.46 -20.3538 191.286 -22.041 193.491C-23.1256 194.916 -24.8368 196.126 -26.145 197.376C-29.5742 200.653 -33.0507 203.887 -36.4442 207.202C-31.281 188.73 -27.9598 169.882 -24.0197 151.136ZM230.001 193.144C226.872 188.983 222.904 185.231 218.845 182.015C213.221 177.556 206.335 174.948 200.719 170.66C195.996 167.05 192.095 162.246 187.268 158.59C179.601 152.788 171.709 147.962 162.73 144.476C174.166 148.378 185.133 153.075 194.293 161.172C195.067 161.858 201.777 170.449 203.165 169.628C204.115 169.074 200.089 162.856 199.25 161.407C193.06 150.76 180.357 143.947 170.319 137.108C158.982 129.386 146.603 125.053 133.686 120.782C145.421 121.43 155.308 124.444 165.138 131.047C169.974 134.292 174.447 138.084 179.431 141.098C183.849 143.77 188.093 146.234 191.906 149.82C196.177 153.839 199.608 158.219 202.442 163.353C203.507 165.285 208.709 176.978 208.849 169.55C208.919 165.89 204.296 160.675 202.425 158.03C199.27 153.575 195.611 149.562 191.781 145.682C185.266 139.088 179.048 132.244 171.315 127.041C166.917 124.08 162.311 121.735 157.279 120.044C153.393 118.736 149.404 117.798 145.326 117.336C141.454 116.898 141.081 116.944 138 114.944C135.352 113.223 133.092 111.382 130.129 110.155C127.11 108.903 124.54 108.724 122.294 107.016C119.644 104.997 118.617 102.629 115.197 101.365C112.053 100.202 108.837 100.458 105.557 100.72C94.7092 101.584 83.6959 104.334 74.7217 110.75C66.7906 116.422 61.3981 125.473 57.5643 134.298C55.4473 139.167 56.8841 138.984 51.1991 141.783C45.2224 144.727 39.2798 147.619 33.465 150.903C43.0524 138.986 51.3876 125.792 61.8987 114.624C67.5189 108.659 73.0313 102.596 78.6501 96.634C80.3089 94.8772 93.4109 82.2225 86.0518 82.6715C84.3504 82.7743 81.7907 85.0486 80.2271 85.7953C77.1061 87.2933 74.0073 88.6208 71.1224 90.5784C66.1215 93.972 62.0396 98.194 57.9504 102.585C47.3568 113.96 37.8088 126.126 32.921 141.061C31.7635 144.595 31.3403 148.579 29.5266 151.822C28.249 154.11 26.7488 154.9 24.1547 156.59C19.706 159.483 15.382 162.458 11.1688 165.693C21.9417 149.738 28.8907 131.883 37.3794 114.704C48.2967 92.6156 53.292 67.8262 62.4752 45.0043C64.2563 40.5777 66.4259 35.7067 69.4147 31.9389C70.3238 30.793 73.1974 29.0752 73.4482 27.6304C74.1112 23.819 71.5295 24.8423 69.6344 25.9384C64.9892 28.6234 60.4789 34.6799 57.3048 38.7623C52.6855 44.7003 48.0067 51.1418 44.0053 57.5395C30.2198 79.5744 21.0805 104.58 13.4888 129.329C9.91675 140.963 6.23335 152.789 4.47563 164.854C3.62807 170.679 4.59132 170.835 -0.276022 174.822C-5.35921 178.988 -10.2166 183.408 -15.2597 187.615C-10.6641 178.178 -7.92494 166.475 -4.60836 156.463C-1.13608 145.975 2.8134 135.645 6.34245 125.173C12.0817 108.132 16.3775 90.6845 20.5101 73.2007C22.705 63.9048 24.762 54.6018 26.6433 45.2405C29.0615 33.2107 31.52 19.32 36.9124 8.22306C37.7166 6.57266 40.9842 -1.09561 36.2563 1.54555C34.0902 2.75298 31.5229 10.6547 30.4174 12.7851C24.1535 24.8843 18.8765 37.1694 14.1618 49.9457C5.80476 72.6 -0.0597144 95.8151 -6.68125 118.981C-9.99095 114.462 -16.8641 109.487 -22.8028 111.41C-28.1371 113.139 -30.7607 120.732 -32.4389 125.489C-32.6254 122.198 -36.6626 116.06 -39.8101 115.85C-41.5987 115.73 -44.6808 117.425 -46.1765 118.132C-49.8743 119.88 -54.0744 122.092 -56.3807 125.533C-61.1071 132.591 -60.2104 143.67 -61.0502 151.839C-63.551 176.203 -63.1029 199.727 -60.3488 223.991C-59.7196 229.543 -58.9591 232.119 -62.1181 236.495C-65.7262 241.495 -69.2046 246.411 -72.7573 251.105C-71.6157 248.931 -72.6473 242.286 -72.6605 239.968C-72.6971 233.758 -72.6335 227.601 -72.3112 221.396C-71.6497 208.616 -72.3356 195.408 -72.9794 182.62C-74.3051 156.272 -74.1845 130.26 -73.2963 103.919C-73.1102 98.3682 -73.2351 92.8518 -73.2691 87.3041C-73.2834 85.0136 -72.5255 79.4028 -76.1635 80.7442C-77.2198 81.1333 -77.9972 85.2298 -78.3039 86.2688C-81.1377 95.8462 -82.0273 106.207 -83.3252 116.043C-84.5045 124.989 -85.5818 133.95 -86.3292 142.94C-87.7652 160.211 -87.291 176.982 -87.2036 194.282C-87.1301 208.533 -85.585 224.026 -82.9507 237.173C-81.7154 243.339 -79.5682 250.001 -78.9428 256.215C-78.5633 259.957 -80.7533 261.344 -83.2679 264.742C-85.8126 268.178 -88.3261 271.641 -90.7547 275.16C-90.5206 269.768 -92.0575 264.193 -92.4182 258.797C-92.7205 254.289 -93.0069 249.804 -93.4128 245.301C-93.7355 241.755 -94.0396 238.205 -94.3538 234.656C-95.9733 216.387 -97.5548 198.159 -100.544 180.058C-105.139 152.262 -110.152 123.696 -109.966 95.4189C-109.929 90.0222 -109.755 84.6292 -109.693 79.2311C-109.647 75.1624 -110.021 71.1261 -110.044 67.0632C-110.057 64.9911 -109.113 60.9843 -109.804 58.9197C-111.803 52.9457 -113.536 59.621 -113.591 62.3645C-113.619 63.81 -113.706 65.2513 -113.728 66.6961C-113.862 75.7752 -114.643 84.73 -115.092 93.7988C-115.735 106.875 -115.16 119.886 -114.726 132.956C-114.252 147.193 -114.608 161.528 -113.078 175.713C-111.104 193.996 -107.151 212.174 -104.67 230.409C-103.591 238.35 -102.085 246.204 -101.268 254.182C-100.506 261.639 -97.8593 268.969 -96.2474 275.857L-96.2563 275.329C-95.6317 278.257 -94.6514 279.72 -95.5412 282.407C-96.1685 284.294 -97.8894 286.278 -98.9201 288.012C-101.118 291.7 -103.228 295.431 -105.339 299.169C-103.468 289.681 -106.004 277.71 -108.011 268.39C-110.229 258.078 -112.933 247.516 -116.098 237.459C-118.559 229.638 -120.596 221.95 -121.339 213.809C-122.329 202.967 -125.278 192.54 -126.863 181.799C-128.359 171.657 -130.877 161.615 -133.024 151.576C-133.508 149.316 -135.666 138.506 -139.178 143.382C-140.043 144.585 -138.982 147.78 -138.846 149.024C-138.512 152.104 -138.304 155.135 -138.166 158.227C-137.269 177.858 -133.158 197.786 -129.936 217.128C-127.877 229.486 -125.696 241.889 -122.687 254.052C-120.344 263.522 -119.078 273.361 -116.479 282.698C-115.232 287.177 -113.965 291.755 -111.973 295.96C-110.24 299.62 -108.492 300.642 -109.104 304.586C-109.979 310.224 -114.78 316.077 -116.946 321.536C-118.717 325.999 -120.524 330.47 -122.212 334.964C-124.57 341.26 -126.78 347.666 -128.849 354.061C-130.05 357.765 -132.379 362.546 -132.597 366.313C-132.929 372.035 -129.691 370.398 -127.99 366.571C-126.846 363.995 -125.932 361.224 -124.856 358.605C-116.96 339.414 -109.731 318.838 -97.9411 301.619C-93.0233 294.428 -79.429 292.695 -71.4528 290.188C-52.2649 284.149 -31.508 283.353 -11.5992 281.146C4.45467 279.37 20.248 277.736 35.9645 273.788C38.2603 273.213 80.1532 260.879 79.1023 258.728C79.689 259.935 33.2701 270.265 29.5528 270.57C17.8956 271.52 6.2755 271.775 -5.40736 272.269C-34.6296 273.506 -63.3728 274.208 -89.9254 288.015C-86.5748 282.745 -82.5667 272.797 -76.685 270.756C-65.3493 266.818 -53.4023 264.275 -41.982 260.435C-30.1101 256.449 -17.9185 253.779 -5.97703 250.085C5.95114 246.395 17.8529 242.572 29.9624 239.469C42.1344 236.35 54.7082 233.1 67.356 233.501C72.2242 233.656 77.106 234.087 81.9535 234.545C83.7842 234.718 98.3547 237.412 90.4759 234.066C85.3737 231.897 78.694 231.73 73.2284 230.934C66.9606 230.024 60.9526 229.216 54.6177 229.266C40.8239 229.372 26.9675 232.606 13.634 235.807C-2.32349 239.634 -18.9353 243.432 -34.1676 249.591C-48.1281 255.236 -62.1601 260.656 -76.1212 266.231C-73.5825 262.345 -70.8824 258.576 -68.2411 254.759C-66.9583 252.902 -65.6048 249.889 -63.7834 248.621C-61.0036 246.684 -55.1546 246.181 -51.9259 245.106C-38.9355 240.787 -25.8861 235.714 -12.5748 232.501C8.82777 227.333 30.7395 224.128 52.2755 219.529C64.8437 216.848 78.1531 214.482 91.0038 214.71C95.8378 214.798 100.679 214.622 105.425 215.643C107.104 216.003 109.218 216.933 110.948 217.129C116.122 217.709 112.283 215.22 109.144 214.132C84.2654 205.519 56.8421 212.405 31.7637 215.91C15.1786 218.225 -1.19464 220.587 -17.0304 226.292C-31.6215 231.547 -45.5713 238.556 -60.4048 243.171C-56.517 237.646 -53.0508 231.925 -46.8392 228.885C-39.9652 225.524 -32.7199 224.062 -25.218 222.788C-9.6208 220.13 5.87191 216.728 21.5193 214.413C35.8938 212.29 50.2423 210.406 64.4909 207.508C78.3645 204.682 92.1566 203.031 105.398 197.691C109.59 196 114.673 193.069 119.149 192.813C124.951 192.482 131.976 194.22 137.665 195.082C151.521 197.177 165.904 199.337 178.713 205.202C191.281 210.958 199.815 220.004 209.436 229.461C212.467 232.445 215.45 235.479 218.472 238.471C219.145 239.138 223.162 244.146 223.99 244.21C229.114 244.594 219.448 234.438 217.78 232.357C206.253 217.976 193.779 205.982 176.821 198.147C162.369 191.469 147.26 187.126 131.5 184.902C131.54 182.053 143.151 181.911 143.47 178.96C143.891 175.025 135.766 178.963 134.156 179.447C131.098 180.365 128.124 181.513 125.051 182.382C117.996 184.376 110.189 181.92 103.022 181C94.3803 179.896 85.6246 179.172 76.9337 178.649C48.1636 176.914 20.5595 177.868 -7.38469 185.577C-2.37043 181.185 2.86055 177.011 8.16053 172.969C10.2241 171.396 11.797 169.955 14.1348 169.217C18.0834 167.97 22.7712 168.527 26.8873 168.124C43.1593 166.537 59.357 164.753 75.7188 164.251C102.645 163.425 130.72 168.258 156.256 176.818C168.713 180.996 180.935 185.059 191.753 192.749C194.257 194.527 196.484 196.568 198.76 198.623C199.701 199.472 205.446 205.649 205.738 205.616C208.229 205.35 196.676 192.565 194.997 190.932C172.435 169.003 143.16 164.018 113.267 159.615C82.0074 155.009 50.6306 157.455 19.8341 164.404C25.9837 160.567 32.028 153.991 38.9316 151.76C44.1756 150.064 50.8315 150.386 56.1377 149.842C71.5256 148.26 87.6546 150.947 103.076 152.039C120.497 153.271 137.42 155.506 154.263 160.147C162.881 162.522 171.274 165.035 179.682 168.119C186.346 170.563 191.783 172.068 197.175 176.534C199.35 178.352 205.82 183.18 209.321 186.462C210.749 187.803 212.228 190.635 213.842 191.309C219.854 193.817 211.875 184.021 210.565 182.321C215.344 185.176 219.805 188.482 224.048 192.002C224.887 192.7 225.69 193.233 226.54 193.87C227.538 194.621 228.06 196.812 229.768 196.082C231.159 195.484 230.665 194.051 230.001 193.144Z" fill="#012A32"/>
</svg>
